<svg version="1.1" id="Layer_1" xmlns="http://www.w3.org/2000/svg" xmlns:xlink="http://www.w3.org/1999/xlink" x="0px" y="0px"
	 width="100%" viewBox="0 0 152 153" enable-background="new 0 0 152 153" xml:space="preserve">
<path fill="#3ABAEB" opacity="1.000000" stroke="none" 
	d="
M73.971069,1.397526 
	C98.952568,1.000000 123.906311,1.120115 148.856461,0.874662 
	C152.742569,0.836432 153.082886,2.017547 153.075439,5.341741 
	C152.965866,54.248531 153.000000,103.155647 153.000000,152.531342 
	C149.139359,153.477554 145.245728,154.735199 141.857101,151.327255 
	C140.512619,149.975113 138.371323,150.318787 136.564774,150.428177 
	C131.917999,150.709579 129.279404,148.767639 127.685570,144.244049 
	C118.443848,118.014442 109.435440,91.703575 100.176796,65.480110 
	C93.801155,47.422226 87.565529,29.314919 81.266861,11.230289 
	C79.829269,7.102704 77.877533,3.785330 73.971069,1.397526 
z"/>
<path fill="#010101" opacity="1.000000" stroke="none" 
	d="
M6.249786,153.699753 
	C1.803097,154.879745 0.864630,153.270599 0.881208,149.018768 
	C1.068643,100.945404 1.028889,52.870987 0.930538,4.797093 
	C0.924428,1.810668 1.432516,0.879663 4.689405,0.906548 
	C26.479271,1.086413 48.271332,1.000000 70.531342,1.000000 
	C72.275932,2.631526 71.300835,4.183388 70.782982,5.713895 
	C57.805000,44.069839 45.340973,82.599380 31.975286,120.823799 
	C29.504005,127.891403 26.795046,134.881088 22.816624,141.310959 
	C20.223061,145.502670 16.770130,148.394577 11.925123,149.414398 
	C9.456388,149.934067 7.696743,151.238678 6.249786,153.699753 
z"/>
<path fill="#F9FAFA" opacity="1.000000" stroke="none" 
	d="
M6.468657,154.000000 
	C6.013989,150.775040 6.738222,148.741592 10.812805,148.438995 
	C16.859566,147.989944 20.372173,143.546127 23.097296,138.559631 
	C28.708319,128.292419 32.048058,117.122894 35.763660,106.119087 
	C46.925789,73.062279 57.960121,39.962337 69.093513,6.895791 
	C69.717865,5.041447 70.784981,3.336182 71.323013,1.280766 
	C71.750000,1.000000 72.500000,1.000000 73.625000,1.000000 
	C79.424591,1.877275 80.857468,5.931332 82.444328,10.523975 
	C97.573883,54.311356 113.005096,97.994606 128.090958,141.796860 
	C129.921875,147.112991 132.097763,150.065750 138.193268,149.116638 
	C140.453064,148.764771 143.581482,147.527451 144.676117,152.162659 
	C145.141525,154.133392 149.519592,152.644226 152.547195,152.994095 
	C152.111038,155.054413 150.320267,153.933548 149.031677,153.938828 
	C128.000488,154.025101 106.968849,154.000000 85.468658,154.000000 
	C82.785965,150.260757 83.398262,148.481033 87.357140,147.805313 
	C90.644897,147.244141 94.001343,147.492035 97.320564,147.572311 
	C100.900543,147.658875 102.258377,146.490707 100.917442,142.821869 
	C96.464638,130.638916 92.319374,118.346298 87.981369,106.121971 
	C87.070213,103.554359 85.307442,102.495445 82.681488,102.484398 
	C70.872192,102.434708 59.063042,102.453110 47.253757,102.473579 
	C44.577854,102.478226 42.874752,103.654327 42.011578,106.191040 
	C38.851032,115.479340 35.438274,124.690132 34.067223,134.485840 
	C33.050346,141.751053 35.318176,145.014832 42.579094,146.431473 
	C44.700119,146.845291 46.891590,147.024094 48.862053,147.961639 
	C51.320843,149.131531 52.642487,150.774307 50.274376,153.705444 
	C35.645771,154.000000 21.291542,154.000000 6.468657,154.000000 
z"/>
<path fill="#010101" opacity="1.000000" stroke="none" 
	d="
M50.468658,154.000000 
	C50.739269,150.458145 49.804504,149.010178 45.696671,148.598022 
	C33.415943,147.365875 30.733053,143.561172 32.797649,131.549088 
	C34.496231,121.666512 38.387398,112.417442 41.291870,102.882576 
	C41.924877,100.804504 43.271545,100.628189 45.085850,100.634903 
	C58.412163,100.684250 71.739433,100.730499 85.064590,100.597115 
	C87.420044,100.573524 88.265564,101.637817 88.914742,103.525566 
	C93.668755,117.349854 98.389648,131.186295 103.284576,144.960770 
	C104.372581,148.022461 103.981682,149.210846 100.499107,149.039597 
	C96.344627,148.835297 92.170143,149.076965 88.008545,148.966537 
	C84.184532,148.865067 83.426605,150.269409 85.272636,153.690857 
	C73.645775,154.000000 62.291546,154.000000 50.468658,154.000000 
z"/>
<path fill="#030303" opacity="1.000000" stroke="none" 
	d="
M77.371307,70.628601 
	C80.400131,79.268295 83.283890,87.540642 86.352074,96.342026 
	C72.472412,96.342026 59.179760,96.340759 45.887104,96.342941 
	C42.718109,96.343460 44.004559,94.455055 44.496998,92.986732 
	C47.505371,84.016518 50.540627,75.055313 53.570072,66.092171 
	C57.185989,55.393852 60.805088,44.696609 64.754967,33.016701 
	C69.102142,45.999233 73.164192,58.130245 77.371307,70.628601 
z"/>
</svg>